<?xml version="1.0" standalone="no"?>
<!DOCTYPE svg PUBLIC "-//W3C//DTD SVG 20010904//EN"
 "http://www.w3.org/TR/2001/REC-SVG-20010904/DTD/svg10.dtd">
<svg version="1.0" xmlns="http://www.w3.org/2000/svg"
 width="516.000000pt" height="516.000000pt" viewBox="0 0 516.000000 516.000000"
 preserveAspectRatio="xMidYMid meet">
<metadata>
Created by potrace 1.14, written by Peter Selinger 2001-2017
</metadata>
<g transform="translate(0.000000,516.000000) scale(0.100000,-0.100000)"
fill="#000000" stroke="none">
<path d="M2694 4937 c-3 -9 -13 -17 -21 -17 -8 0 -11 -5 -8 -10 3 -6 -1 -13
-10 -16 -9 -4 -14 -13 -11 -20 3 -8 2 -14 -2 -14 -4 0 -8 -9 -8 -20 0 -11 4
-20 9 -20 5 0 4 -7 -3 -15 -8 -10 -9 -15 -1 -15 7 0 8 -8 1 -26 -7 -18 -7 -23
1 -18 8 4 8 0 0 -15 -9 -16 -9 -21 0 -21 8 0 8 -5 -2 -16 -10 -13 -10 -17 0
-24 9 -5 10 -10 2 -14 -8 -5 -8 -13 0 -28 8 -16 8 -19 -1 -13 -9 6 -9 2 -1
-14 7 -11 8 -21 3 -21 -4 0 -8 -9 -8 -20 0 -11 4 -20 8 -20 5 0 4 -10 -3 -21
-8 -16 -8 -20 1 -14 9 6 9 2 1 -14 -9 -16 -9 -21 0 -21 8 0 7 -5 -2 -17 -11
-13 -11 -17 -1 -21 10 -3 10 -7 1 -18 -9 -11 -8 -14 2 -14 11 0 11 -2 1 -8 -9
-6 -7 -13 7 -29 11 -11 17 -24 14 -27 -4 -3 1 -6 10 -6 9 0 17 -5 17 -11 0 -5
5 -7 10 -4 6 3 10 1 10 -5 0 -6 4 -9 9 -6 5 3 13 0 19 -7 12 -15 20 -107 9
-107 -4 0 -3 -9 3 -20 6 -11 7 -20 2 -20 -10 0 -9 -30 1 -47 4 -7 2 -15 -5
-20 -14 -9 -18 -84 -5 -94 4 -3 -5 -18 -20 -33 -15 -15 -29 -23 -31 -17 -3 8
-9 8 -24 0 -11 -6 -33 -9 -49 -7 -16 3 -29 1 -29 -2 0 -4 -11 -5 -25 -2 -14 2
-32 -1 -40 -8 -12 -10 -15 -10 -15 0 0 9 -4 10 -13 2 -11 -9 -46 -17 -100 -21
-5 -1 -6 -5 -2 -10 3 -6 -4 -8 -16 -6 -13 3 -28 0 -36 -6 -7 -7 -13 -9 -13 -5
0 4 -13 0 -30 -9 -16 -9 -30 -13 -30 -11 0 3 -13 0 -30 -5 -16 -6 -27 -15 -24
-20 3 -5 -2 -6 -10 -3 -8 3 -29 -4 -46 -16 -21 -15 -30 -17 -30 -8 -1 9 -5 8
-13 -4 -8 -9 -20 -18 -27 -20 -8 -2 -21 -9 -29 -16 -7 -7 -20 -11 -28 -8 -8 3
-12 2 -10 -2 3 -4 -13 -20 -35 -35 -22 -16 -37 -22 -32 -15 4 7 -3 4 -14 -7
-40 -38 -76 -60 -94 -57 -3 1 -9 -5 -12 -14 -4 -10 -2 -13 6 -8 7 4 8 3 4 -4
-4 -7 -14 -12 -22 -12 -8 0 -13 -3 -11 -7 2 -5 -7 -18 -20 -30 -13 -12 -23
-20 -23 -17 0 3 -7 -1 -15 -10 -8 -8 -15 -20 -15 -26 0 -6 -4 -8 -10 -5 -5 3
-10 -1 -10 -10 0 -9 -4 -13 -10 -10 -5 3 -10 3 -10 -2 0 -4 -15 -24 -33 -44
-47 -53 -72 -91 -69 -103 2 -6 0 -8 -4 -4 -8 8 -41 -32 -36 -44 1 -5 -2 -8 -8
-8 -5 0 -10 -7 -10 -15 0 -8 -5 -15 -10 -15 -6 0 -10 -6 -9 -12 2 -18 -12 -58
-20 -58 -3 0 -12 -9 -19 -21 -11 -17 -11 -20 0 -13 9 6 9 3 -2 -10 -8 -10 -16
-27 -17 -39 -2 -12 -7 -24 -11 -27 -7 -5 -14 -27 -15 -47 0 -7 -5 -13 -10 -13
-5 0 -7 -6 -4 -14 3 -8 1 -16 -5 -18 -6 -2 -13 -17 -14 -34 -6 -54 -16 -94
-25 -94 -4 0 -6 -9 -4 -20 2 -11 0 -20 -4 -20 -4 0 -6 -14 -3 -30 2 -17 -1
-36 -7 -44 -8 -9 -8 -16 -2 -20 7 -5 7 -15 1 -32 -6 -14 -8 -30 -4 -35 3 -5 0
-9 -7 -9 -8 0 -8 -4 1 -15 8 -9 8 -15 2 -15 -7 0 -8 -10 -2 -30 5 -19 5 -30
-1 -30 -6 0 -8 -4 -5 -8 2 -4 6 -43 8 -85 1 -42 5 -77 8 -77 4 0 7 -23 9 -52
1 -29 7 -58 13 -65 6 -7 7 -13 2 -13 -5 0 -2 -5 6 -10 10 -6 11 -10 3 -10 -9
0 -10 -7 -3 -25 5 -14 9 -29 8 -33 -1 -8 9 -40 23 -64 5 -10 9 -25 9 -33 0 -8
5 -15 11 -15 5 0 8 -4 5 -8 -3 -5 6 -32 20 -61 13 -29 24 -60 24 -68 0 -8 5
-11 10 -8 6 3 10 -3 10 -14 0 -12 5 -21 10 -21 6 0 9 -4 8 -8 -4 -14 70 -126
112 -170 8 -9 13 -17 12 -20 -6 -6 57 -72 68 -72 6 0 10 -6 10 -14 0 -8 11
-23 25 -34 14 -11 25 -25 25 -32 0 -6 5 -8 10 -5 5 3 10 1 10 -4 0 -6 4 -11
10 -11 13 0 59 -48 52 -54 -3 -3 4 -6 16 -6 12 0 22 -4 22 -10 0 -5 7 -10 16
-10 8 0 12 -4 9 -10 -3 -5 3 -10 14 -10 12 0 21 -4 21 -10 0 -5 7 -10 15 -10
8 0 15 -4 15 -10 0 -5 7 -10 15 -10 8 0 14 -3 14 -7 -3 -19 2 -27 9 -15 6 9
13 7 29 -7 11 -11 24 -17 27 -14 3 4 6 1 6 -5 0 -7 3 -11 8 -10 4 2 33 -10 64
-25 32 -16 62 -26 68 -22 5 3 10 -2 10 -12 0 -14 2 -15 9 -5 7 11 10 11 22 0
8 -7 25 -15 39 -16 14 -2 27 -8 28 -13 2 -6 10 -5 18 2 11 9 15 8 20 -4 3 -8
13 -14 22 -12 9 1 22 -2 29 -7 7 -5 17 -7 22 -4 5 4 13 2 16 -4 4 -6 15 -8 26
-5 11 4 19 2 19 -5 0 -6 4 -9 9 -6 4 3 22 1 40 -4 20 -5 31 -5 31 1 0 6 4 8 8
5 5 -3 25 -6 45 -8 21 -1 37 -7 37 -12 0 -6 4 -6 11 1 15 15 59 -7 59 -30 0
-11 -5 -15 -11 -11 -6 3 -3 -5 6 -20 10 -14 13 -26 7 -26 -6 0 -8 -10 -4 -22
3 -11 1 -19 -4 -16 -5 4 -9 -5 -9 -18 0 -13 3 -24 7 -24 4 0 3 -12 -3 -27 -7
-19 -6 -28 2 -34 7 -4 8 -12 3 -20 -12 -20 -14 -38 -4 -44 5 -3 7 -12 3 -20
-3 -9 1 -15 8 -15 11 0 11 -3 -1 -10 -8 -5 -11 -10 -6 -10 6 0 -13 -12 -42
-26 -49 -24 -59 -39 -53 -76 0 -5 -3 -8 -7 -8 -5 0 -9 -7 -9 -15 0 -8 5 -15
11 -15 6 0 6 -4 -2 -12 -8 -8 -8 -17 -1 -31 8 -15 8 -18 -1 -12 -9 6 -9 2 -1
-14 7 -11 8 -21 3 -21 -4 0 -8 -9 -8 -20 0 -11 4 -20 8 -20 5 0 4 -10 -3 -21
-8 -16 -8 -20 1 -14 9 6 9 2 1 -14 -9 -16 -9 -21 0 -21 8 0 7 -5 -2 -17 -11
-13 -11 -17 -1 -21 10 -3 10 -7 1 -18 -9 -11 -9 -14 1 -14 10 0 10 -3 0 -15
-10 -12 -10 -15 0 -15 10 0 10 -3 0 -15 -10 -12 -10 -15 0 -15 10 0 10 -3 0
-15 -8 -10 -9 -15 -1 -15 7 0 8 -8 1 -25 -7 -17 -6 -25 1 -25 8 0 7 -5 -1 -15
-7 -9 -8 -15 -2 -15 5 0 13 -11 16 -24 6 -24 38 -42 64 -38 6 2 12 -2 12 -8 0
-6 5 -8 10 -5 5 3 10 1 10 -4 0 -6 5 -11 11 -11 5 0 7 4 4 10 -3 6 1 7 9 4 9
-3 16 -1 16 4 0 6 9 14 20 17 11 4 18 10 15 15 -3 4 2 13 9 20 8 6 13 20 11
30 -2 11 0 22 4 25 5 2 5 23 1 45 -4 22 -4 40 -1 40 4 0 4 27 1 60 -3 33 -3
60 0 60 3 0 3 27 0 60 -3 33 -3 60 0 60 4 0 4 23 0 50 -4 28 -3 50 2 50 5 0 4
9 -2 20 -8 14 -8 20 0 20 8 0 8 6 0 20 -8 14 -8 20 0 20 8 0 8 6 0 20 -8 14
-8 20 0 20 7 0 7 7 -1 23 -6 12 -8 19 -4 15 4 -4 14 0 21 10 12 15 15 15 24 2
5 -8 10 -10 10 -5 1 6 5 0 11 -13 5 -13 13 -21 19 -17 6 4 7 -1 3 -12 -3 -10
-3 -15 1 -12 6 6 96 -77 96 -88 0 -3 18 -23 40 -45 22 -22 40 -44 40 -49 0 -5
7 -9 16 -9 8 0 12 -5 9 -10 -3 -6 -1 -10 4 -10 6 0 11 -4 11 -9 0 -10 66 -77
99 -100 11 -8 18 -18 16 -21 -3 -4 4 -15 15 -25 11 -10 20 -14 20 -10 0 5 7 0
15 -11 8 -11 14 -14 15 -6 0 9 7 8 25 -4 14 -9 25 -12 25 -7 0 5 9 9 20 10 11
1 28 10 38 20 25 24 53 83 40 83 -6 0 -6 6 2 15 9 10 9 15 1 15 -6 0 -11 10
-11 22 0 25 -59 107 -77 108 -7 0 -13 7 -13 15 0 8 -7 15 -15 15 -8 0 -15 7
-15 16 0 8 -5 12 -10 9 -6 -3 -10 -1 -10 5 0 6 -18 29 -40 50 -22 21 -40 43
-40 48 0 5 -7 13 -16 16 -9 4 -14 9 -11 12 6 7 -80 94 -93 94 -5 0 -12 9 -15
20 -4 11 -10 18 -14 15 -4 -2 -14 7 -21 20 -7 14 -18 25 -24 25 -6 0 -20 16
-30 35 -10 19 -23 32 -27 29 -5 -3 -9 2 -9 11 0 9 -4 14 -8 11 -5 -3 -15 6
-22 19 -7 13 -17 22 -22 19 -4 -3 -8 2 -8 11 0 9 -5 13 -10 10 -6 -3 -10 1
-10 10 0 9 -4 13 -10 10 -5 -3 -10 1 -10 10 0 8 -7 18 -15 21 -8 4 -12 10 -9
15 3 5 1 9 -4 9 -5 0 -12 14 -14 30 -3 17 -2 30 2 30 3 0 3 27 0 60 -3 33 -3
60 0 60 3 0 3 27 0 60 -3 33 -3 60 0 60 4 0 4 23 0 50 -4 27 -3 50 2 50 5 0 4
9 -2 20 -8 14 -8 20 0 20 8 0 8 6 0 20 -8 14 -8 20 0 20 8 0 8 6 0 20 -8 14
-8 20 0 20 8 0 8 6 0 20 -8 14 -8 20 0 20 8 0 8 6 0 20 -8 14 -8 20 0 20 8 0
8 6 0 20 -8 14 -8 20 0 20 8 0 8 6 0 20 -6 11 -7 20 -2 20 5 0 6 23 2 50 -4
27 -4 50 0 50 3 0 3 27 0 60 -3 33 -3 60 0 60 3 0 3 27 0 60 -4 37 -2 61 5 64
5 2 4 5 -3 5 -10 1 -9 6 4 19 23 23 36 22 76 -8 47 -36 80 -53 73 -37 -4 7 0
4 8 -6 8 -9 19 -17 25 -17 6 0 12 -3 14 -7 4 -10 83 -64 121 -83 15 -7 27 -17
27 -22 0 -4 7 -8 15 -8 8 0 15 -4 15 -8 0 -5 18 -15 40 -22 22 -7 40 -20 40
-28 0 -8 6 -12 15 -8 8 3 15 2 15 -2 0 -5 18 -18 40 -31 22 -12 53 -33 69 -46
15 -14 31 -22 35 -18 3 3 6 1 6 -5 0 -7 3 -11 8 -11 19 3 33 -2 27 -11 -3 -5
1 -10 9 -10 9 0 16 -5 16 -11 0 -5 4 -8 9 -4 5 3 16 -2 24 -10 9 -8 20 -15 26
-15 6 0 11 -4 11 -10 0 -5 9 -10 20 -10 11 0 20 -4 20 -10 0 -5 5 -10 11 -10
11 0 71 -46 68 -52 -1 -2 4 -21 10 -42 6 -22 8 -42 6 -45 -3 -2 1 -11 8 -19
10 -13 9 -14 -2 -7 -9 5 -6 -4 7 -22 16 -23 18 -33 10 -41 -9 -9 -9 -12 1 -12
7 0 11 -6 8 -15 -4 -8 -2 -17 4 -20 5 -4 7 -11 4 -16 -4 -5 -2 -9 2 -9 5 0 10
-11 11 -25 3 -38 6 -49 17 -57 6 -5 4 -8 -5 -8 -10 0 -11 -3 -3 -8 6 -4 13
-23 15 -42 3 -19 10 -47 16 -62 6 -15 9 -35 6 -43 -4 -8 -2 -15 3 -15 5 0 10
-6 11 -12 1 -26 13 -71 22 -88 5 -9 7 -25 6 -36 -2 -10 0 -21 5 -24 4 -3 9
-19 11 -35 2 -17 8 -33 13 -37 6 -5 5 -8 -3 -8 -9 0 -9 -6 3 -23 8 -13 12 -27
8 -30 -3 -4 0 -7 8 -7 11 0 11 -2 -1 -10 -8 -5 -10 -10 -4 -10 6 0 11 -6 12
-12 2 -32 31 -97 32 -74 0 5 8 0 18 -11 18 -21 72 -37 72 -22 0 5 3 8 8 8 14
-3 71 13 70 20 0 3 1 9 2 14 1 4 3 10 5 15 1 4 5 15 9 25 5 9 6 26 3 37 -3 11
0 20 5 20 6 0 3 9 -7 20 -10 11 -13 20 -7 20 6 0 5 11 -4 30 -9 16 -13 34 -9
40 3 5 1 10 -5 10 -7 0 -10 7 -6 15 3 8 0 15 -7 15 -8 0 -8 3 2 9 9 6 10 11 2
15 -6 4 -9 12 -6 17 4 5 1 9 -6 9 -7 0 -9 3 -6 7 4 3 2 12 -4 20 -9 10 -8 13
2 13 8 0 6 5 -6 13 -13 10 -15 16 -6 21 9 6 9 11 0 22 -7 8 -13 29 -15 47 -4
42 -14 77 -24 77 -4 0 -6 13 -4 30 2 16 -1 32 -6 35 -6 4 -8 10 -5 15 3 5 1
12 -5 15 -8 5 -8 11 -1 19 8 9 5 19 -9 33 -18 20 -18 22 -1 37 20 18 41 21 41
5 0 -5 4 -8 9 -5 5 3 11 -1 15 -9 3 -8 12 -15 21 -15 8 0 15 -5 15 -11 0 -5 4
-8 9 -5 4 3 19 -3 31 -14 12 -11 31 -22 41 -25 11 -4 19 -11 19 -16 0 -5 7 -9
15 -9 8 0 24 -9 35 -20 11 -11 27 -20 35 -20 9 0 27 -11 40 -25 14 -13 25 -21
25 -17 0 4 5 -1 11 -11 6 -9 14 -15 20 -12 5 4 9 2 9 -4 0 -6 6 -8 14 -5 8 3
20 -4 28 -15 8 -12 18 -18 21 -14 4 3 7 1 7 -6 0 -7 4 -10 9 -7 4 3 19 -3 32
-15 12 -11 29 -17 37 -14 7 3 21 5 30 5 17 0 55 30 82 64 12 16 12 18 1 11
-11 -6 -12 -5 -5 6 11 17 13 90 3 83 -4 -2 -10 9 -14 26 -4 16 -11 30 -17 30
-5 0 -21 9 -35 20 -14 11 -29 18 -33 15 -4 -3 -10 2 -14 10 -3 8 -12 15 -21
15 -8 0 -15 4 -15 9 0 5 -9 13 -20 16 -11 4 -18 10 -15 15 3 4 -3 6 -14 3 -12
-3 -26 5 -40 23 -11 14 -21 24 -21 20 0 -10 -82 36 -97 54 -7 8 -13 11 -13 7
0 -4 -10 1 -22 13 -12 11 -34 26 -50 32 -15 7 -28 16 -28 20 0 5 -7 8 -15 8
-21 0 -37 34 -23 48 7 7 18 12 25 12 7 0 13 4 13 8 0 5 10 8 23 7 12 -1 31 5
41 14 16 13 18 13 11 1 -8 -13 -7 -13 8 -1 9 7 17 10 17 7 0 -4 9 -2 21 4 11
6 28 13 37 15 40 8 47 11 54 20 5 6 8 5 8 -4 0 -10 3 -11 13 -2 8 6 17 8 20 4
4 -3 7 -1 7 5 0 6 6 9 14 6 8 -3 17 0 21 5 3 6 11 9 16 6 5 -4 9 -2 9 4 0 5 8
8 18 6 9 -1 23 2 30 8 6 5 12 6 12 3 0 -4 9 -2 21 4 11 7 33 14 47 16 15 3 33
11 41 17 12 10 13 9 7 -1 -7 -12 -4 -12 15 -1 13 6 29 17 35 23 15 16 39 60
36 69 -1 4 3 7 9 7 6 0 7 5 2 13 -4 6 -9 21 -10 32 -2 11 -8 24 -13 29 -4 4
-6 15 -3 22 3 8 -1 14 -10 14 -8 0 -17 4 -19 10 -1 5 -13 11 -25 13 -12 2 -25
6 -29 10 -4 3 -14 3 -23 -2 -9 -5 -26 -7 -38 -6 -13 1 -23 -2 -23 -7 0 -4 -3
-7 -7 -6 -15 3 -63 -14 -59 -21 3 -4 -11 -6 -30 -6 -19 1 -34 -2 -34 -7 0 -5
-6 -8 -12 -7 -18 3 -71 -12 -87 -25 -12 -9 -13 -8 -7 3 6 9 1 8 -16 -3 -14 -9
-39 -18 -57 -19 -17 -1 -31 -5 -31 -9 0 -4 -8 -7 -17 -7 -15 0 -77 -18 -133
-39 -8 -3 -21 -4 -28 -3 -8 1 -23 -6 -34 -15 -16 -16 -21 -16 -28 -4 -8 12
-10 12 -15 -2 -4 -10 -17 -16 -34 -16 -16 1 -34 -3 -42 -8 -14 -9 -34 -14 -56
-16 -7 -1 -13 -6 -13 -11 0 -5 -6 -4 -13 2 -8 6 -17 8 -20 4 -4 -3 -7 -2 -7 4
0 5 -30 25 -67 43 -38 19 -72 40 -76 47 -5 7 -12 11 -18 8 -5 -4 -9 -2 -9 3 0
4 -16 14 -35 22 -19 7 -32 16 -30 20 2 3 -12 12 -31 19 -18 7 -34 17 -34 22 0
5 -7 9 -15 9 -8 0 -15 5 -15 10 0 6 -6 10 -14 10 -7 0 -25 11 -39 24 -14 13
-28 21 -31 18 -3 -3 -6 0 -6 7 0 7 -5 9 -10 6 -6 -3 -13 0 -16 9 -3 8 -12 12
-19 10 -7 -3 -19 4 -27 15 -8 12 -18 18 -21 14 -4 -3 -7 -1 -7 6 0 7 -4 10 -9
7 -4 -3 -21 5 -37 19 -15 13 -31 22 -36 19 -4 -3 -8 0 -8 7 0 7 -3 9 -7 6 -3
-4 -16 4 -28 18 -13 13 -26 21 -29 18 -3 -4 -6 -2 -6 3 0 6 -16 16 -35 24 -19
8 -35 17 -35 22 0 4 -7 8 -15 8 -8 0 -24 9 -35 20 -11 11 -24 20 -29 20 -20 0
-6 41 16 46 13 4 21 10 18 14 -3 4 2 11 11 14 10 4 13 2 8 -6 -4 -6 4 -3 18 8
14 10 24 22 21 27 -2 4 -1 7 4 6 13 -4 63 23 63 33 0 5 4 7 8 4 5 -3 20 6 35
20 15 14 27 22 27 18 0 -4 14 5 30 21 17 16 30 26 30 22 0 -4 18 4 40 18 22
14 44 25 50 25 5 0 10 5 10 11 0 5 4 8 9 5 5 -3 11 1 15 9 3 8 12 15 21 15 8
0 15 5 15 11 0 5 4 8 9 5 5 -3 12 1 15 10 3 8 10 12 16 9 5 -3 10 -1 10 5 0 6
5 8 10 5 6 -3 10 -2 10 3 0 6 14 15 30 21 17 5 30 15 30 21 0 6 4 9 8 6 5 -3
16 4 25 15 9 10 24 19 32 19 8 0 15 4 15 10 0 5 11 12 25 16 14 3 25 11 25 16
0 6 6 8 14 5 7 -3 20 2 28 11 22 25 70 57 80 54 4 -1 8 2 8 7 0 8 21 8 40 1 3
-1 8 -2 13 -1 4 0 7 -4 7 -11 0 -6 3 -9 6 -5 4 3 23 0 43 -8 40 -15 83 -25 92
-22 3 1 12 -3 20 -10 8 -6 31 -14 52 -18 20 -4 37 -11 37 -16 0 -6 7 -6 18 0
11 6 24 6 33 0 17 -11 91 -33 102 -31 4 1 7 -4 7 -10 0 -9 4 -8 10 2 7 11 10
11 10 2 0 -7 5 -10 10 -7 6 3 10 1 10 -5 0 -6 4 -8 10 -5 5 3 27 -3 50 -14 22
-10 40 -15 40 -11 0 5 13 2 30 -6 16 -9 34 -13 40 -9 5 3 10 1 10 -5 0 -6 5
-8 10 -5 6 3 10 1 10 -5 0 -6 5 -8 10 -5 6 3 10 1 10 -6 0 -9 3 -9 14 0 10 8
16 9 21 1 3 -6 11 -8 16 -5 5 4 9 2 9 -4 0 -5 8 -8 18 -7 9 2 20 -2 24 -8 5
-7 8 -6 8 4 0 13 2 13 9 1 8 -12 12 -12 25 -2 9 8 16 10 16 7 0 -4 10 3 23 14
12 12 21 24 20 28 -1 4 5 15 14 24 8 9 12 22 8 27 -3 6 -1 11 6 11 8 0 9 3 0
13 -6 8 -8 17 -4 20 3 4 0 7 -8 7 -11 0 -11 2 -1 9 11 7 11 11 -2 24 -9 8 -16
21 -16 28 0 7 -3 10 -6 6 -4 -3 -13 1 -21 9 -9 8 -22 13 -29 10 -8 -3 -14 -1
-14 4 0 6 -11 10 -25 10 -14 0 -25 6 -25 13 0 8 -4 7 -10 -3 -7 -11 -10 -11
-10 -2 0 7 -4 11 -9 7 -5 -3 -12 -1 -16 5 -4 6 -10 8 -15 5 -5 -3 -11 -1 -15
5 -3 5 -17 10 -30 10 -13 0 -26 6 -28 13 -4 9 -6 9 -6 0 -1 -9 -8 -8 -27 2
-15 7 -33 11 -40 8 -8 -3 -14 -1 -14 4 0 10 -7 11 -55 14 -14 1 -25 5 -25 10
0 5 -13 9 -30 9 -16 0 -30 5 -30 11 0 5 -5 7 -10 4 -6 -4 -24 0 -40 9 -19 9
-30 11 -30 3 0 -6 -11 0 -24 12 -20 19 -23 27 -14 46 5 12 18 22 29 21 10 0
17 3 16 8 -2 9 41 30 56 28 4 -1 7 3 7 9 0 5 5 7 10 4 6 -3 10 -1 10 4 0 6 7
11 16 11 8 0 13 3 11 8 -3 4 6 15 19 25 13 10 24 13 24 7 0 -6 10 -2 22 10 12
11 34 26 50 32 15 7 28 16 28 20 0 5 5 8 10 8 6 0 20 9 32 20 12 10 24 17 28
15 5 -3 11 2 14 11 3 8 10 12 16 9 5 -3 10 -1 10 5 0 6 4 9 8 6 5 -3 22 8 37
24 15 16 33 26 39 23 6 -3 8 -2 3 2 -4 5 0 17 10 27 13 14 13 18 2 18 -8 0
-10 3 -4 8 13 9 15 42 3 42 -6 0 -5 6 2 15 10 12 10 15 0 15 -7 0 -10 7 -6 15
7 20 -74 81 -85 64 -5 -8 -8 -7 -12 2 -4 10 -6 10 -6 2 -1 -7 -6 -13 -12 -13
-5 0 -7 4 -4 10 3 6 -1 7 -9 4 -9 -3 -16 -10 -16 -14 0 -4 -11 -11 -25 -14
-14 -4 -25 -11 -25 -17 0 -6 -5 -7 -10 -4 -6 3 -13 0 -16 -9 -3 -8 -19 -18
-36 -21 -16 -4 -32 -13 -35 -21 -3 -8 -9 -11 -14 -8 -5 3 -12 -2 -15 -10 -3
-9 -9 -14 -14 -11 -4 2 -17 -5 -28 -16 -12 -11 -22 -16 -22 -12 -1 4 -9 -2
-19 -14 -10 -12 -21 -19 -25 -16 -3 4 -6 0 -6 -7 0 -7 -3 -11 -6 -7 -3 3 -36
-14 -72 -37 -37 -24 -77 -47 -90 -50 -13 -5 -20 -12 -16 -19 4 -7 -4 -2 -16
10 -23 21 -23 23 -8 62 12 29 13 42 4 52 -8 9 -8 10 3 4 11 -6 13 -4 8 8 -3
10 -3 17 1 17 4 0 9 12 10 28 1 15 7 29 12 30 6 2 7 8 4 13 -3 6 -1 16 6 24 8
10 8 15 0 20 -8 5 -4 15 11 31 16 17 18 24 8 24 -12 0 -11 2 1 10 10 7 11 10
2 10 -9 0 -10 5 -2 20 5 11 14 29 20 40 6 13 6 21 -1 26 -7 4 -2 15 12 30 14
15 17 24 10 24 -10 0 -11 3 -2 13 6 8 8 17 4 20 -3 4 -1 13 5 20 7 8 9 17 5
20 -3 4 -1 7 5 7 16 0 9 130 -8 158 -14 20 -19 23 -36 21 -4 0 -10 4 -13 10
-13 20 -68 16 -104 -9 -20 -13 -35 -27 -35 -30 2 -15 -15 -69 -21 -66 -4 3 -6
-13 -5 -35 0 -21 -3 -39 -8 -39 -5 0 -6 -4 -3 -10 3 -5 0 -10 -7 -10 -11 0
-11 -2 0 -9 11 -7 11 -11 -2 -24 -12 -11 -13 -17 -3 -20 9 -4 9 -6 0 -6 -7 -1
-13 -12 -13 -26 0 -14 -5 -25 -11 -25 -5 0 -7 -4 -4 -10 3 -5 1 -18 -4 -29 -8
-14 -8 -21 2 -24 9 -4 9 -6 -1 -6 -7 -1 -10 -5 -7 -11 3 -5 2 -10 -2 -10 -5 0
-9 -8 -10 -17 -2 -28 -11 -60 -23 -84 -9 -16 -9 -20 0 -14 9 5 9 3 2 -11 -5
-11 -7 -25 -5 -31 3 -7 1 -13 -4 -13 -6 0 -10 -6 -11 -12 -4 -47 -13 -83 -24
-90 -10 -6 -10 -8 1 -8 11 0 11 -3 1 -15 -7 -8 -10 -22 -6 -30 3 -8 1 -15 -4
-15 -5 0 -12 -20 -16 -45 -3 -25 -11 -48 -16 -51 -6 -4 -6 -9 2 -14 9 -5 5
-14 -12 -30 -12 -13 -17 -19 -9 -15 10 6 12 4 5 -6 -5 -8 -7 -23 -5 -34 2 -11
0 -17 -4 -13 -4 4 -13 2 -20 -5 -41 -40 -71 -60 -105 -72 -27 -9 -39 -19 -34
-26 3 -5 -2 -9 -10 -9 -8 0 -22 -7 -30 -16 -9 -8 -16 -13 -16 -9 0 4 -7 -1
-16 -9 -8 -9 -22 -16 -30 -16 -8 0 -14 -4 -14 -9 0 -5 -10 -13 -22 -17 -12 -3
-28 -12 -35 -18 -28 -25 -40 -33 -80 -52 -23 -12 -40 -24 -36 -28 3 -3 -3 -6
-15 -6 -12 0 -22 -4 -22 -10 0 -5 -7 -10 -15 -10 -8 0 -15 -4 -15 -10 0 -5 -7
-10 -15 -10 -8 0 -15 -5 -15 -11 0 -5 -4 -8 -9 -5 -5 3 -14 -1 -21 -9 -7 -8
-16 -15 -21 -15 -5 0 -20 -10 -35 -22 -14 -13 -27 -21 -29 -18 -1 3 -11 -2
-21 -11 -11 -9 -40 -28 -66 -43 -27 -15 -48 -31 -48 -37 0 -6 -5 -7 -10 -4 -6
3 -12 0 -15 -7 -7 -19 -41 -20 -56 -2 -6 7 -9 23 -6 34 3 11 0 20 -6 20 -7 0
-5 5 3 10 13 9 13 10 0 10 -12 0 -13 2 -1 9 11 7 11 9 0 14 -8 3 -9 6 -4 6 7
1 8 25 5 66 -3 36 -3 65 0 65 3 0 3 27 0 60 -3 33 -3 60 0 60 4 0 4 23 0 50
-4 28 -3 50 2 50 5 0 4 9 -2 20 -8 14 -8 20 0 20 8 0 8 6 0 20 -8 14 -8 20 0
20 8 0 8 6 0 20 -8 14 -8 20 0 20 8 0 8 6 0 20 -8 14 -8 20 0 20 8 0 8 6 0 20
-8 14 -8 20 0 20 8 0 8 6 0 20 -8 14 -8 20 0 20 8 0 8 6 0 20 -6 11 -7 20 -2
20 5 0 6 23 2 50 -4 28 -4 50 0 50 3 0 3 27 0 60 -3 33 -3 60 0 60 3 0 4 16 2
35 -4 37 5 91 15 82 3 -3 17 8 31 26 53 65 111 125 116 119 3 -3 6 -1 6 5 0
10 45 67 86 110 12 12 19 24 16 27 -3 3 2 6 12 6 9 0 15 3 13 8 -2 4 4 15 15
25 10 9 18 14 18 10 0 -4 11 7 23 25 13 17 27 29 30 25 4 -3 7 1 7 11 0 9 3
15 8 13 4 -3 18 12 31 34 14 21 27 37 29 35 2 -3 20 14 40 37 20 23 40 44 45
45 4 2 7 10 7 18 0 9 4 12 10 9 5 -3 19 10 31 29 12 20 25 36 31 36 5 0 6 5 3
10 -4 6 -1 17 5 25 8 10 9 15 2 15 -6 0 -9 6 -6 14 3 8 0 25 -7 38 -7 13 -12
27 -11 31 5 16 -43 47 -65 42 -12 -3 -25 -1 -28 5 -9 15 -62 -16 -110 -66 -24
-24 -40 -44 -37 -44 3 0 -8 -11 -26 -23 -17 -13 -29 -26 -27 -29 3 -3 -10 -19
-30 -37 -20 -17 -33 -31 -30 -31 3 0 -16 -22 -43 -50 -27 -27 -48 -51 -48 -52
1 -2 -13 -17 -31 -35 -18 -17 -33 -29 -33 -25 0 3 -14 -13 -31 -36 -36 -50
-51 -52 -66 -12 -8 23 -8 30 0 30 8 0 7 3 -1 9 -11 7 -10 9 3 14 14 6 14 9 -1
32 -10 16 -12 25 -5 25 9 0 9 5 1 20 -8 14 -8 20 0 20 8 0 8 6 0 20 -8 14 -8
20 0 20 8 0 8 6 0 20 -6 11 -7 20 -2 20 5 0 6 23 2 50 -4 28 -4 50 0 50 3 0 3
27 0 60 -3 33 -3 60 0 60 3 0 3 27 0 60 -3 33 -2 61 2 62 12 5 -34 98 -48 98
-8 0 -14 5 -14 10 0 14 -57 13 -66 -1 -4 -8 -9 -7 -15 2 -6 11 -9 10 -15 -4z
m12 -1206 c26 5 32 -4 30 -41 0 -22 1 -40 4 -40 3 0 7 -14 8 -31 1 -17 -1 -28
-5 -26 -5 3 -8 -6 -8 -19 0 -13 3 -24 7 -24 4 0 3 -12 -3 -27 -7 -19 -6 -28 2
-34 7 -4 8 -12 3 -20 -12 -20 -14 -38 -3 -45 5 -3 5 -13 -1 -25 -8 -13 -7 -19
0 -19 7 0 8 -5 3 -12 -11 -18 -10 -32 0 -39 6 -4 6 -13 1 -20 -12 -20 -14 -38
-3 -45 5 -3 5 -13 -1 -25 -8 -13 -7 -19 0 -19 6 0 8 -5 4 -12 -10 -16 -11 -68
-1 -68 5 0 5 -5 1 -12 -9 -15 -10 -58 -2 -80 4 -9 4 -19 0 -22 -10 -11 -11
-36 -1 -42 5 -3 6 -11 2 -17 -11 -17 -10 -31 0 -38 6 -4 6 -13 1 -20 -12 -20
-14 -38 -3 -45 5 -3 6 -11 2 -17 -11 -17 -10 -31 0 -38 5 -4 6 -13 1 -20 -11
-19 -13 -49 -2 -49 5 0 6 -5 2 -12 -10 -16 -11 -68 -1 -68 5 0 5 -5 1 -12 -10
-16 -11 -68 -1 -68 5 0 5 -5 1 -12 -10 -16 -11 -68 -1 -68 5 0 5 -5 1 -12 -9
-15 -10 -58 -2 -80 4 -9 4 -19 0 -22 -10 -11 -11 -36 -1 -42 5 -3 6 -11 2 -17
-11 -17 -10 -31 0 -38 6 -4 6 -13 1 -20 -12 -20 -14 -38 -3 -45 5 -3 6 -11 2
-17 -11 -17 -10 -31 0 -38 5 -4 6 -13 1 -20 -11 -19 -13 -49 -2 -49 5 0 6 -5
2 -12 -10 -16 -11 -68 -1 -68 5 0 5 -5 1 -12 -10 -16 -12 -58 -2 -58 4 0 3
-12 -3 -27 -7 -19 -6 -28 2 -34 7 -4 8 -12 3 -20 -12 -20 -14 -38 -3 -45 5 -3
5 -13 -1 -25 -8 -14 -7 -19 1 -19 8 0 8 -4 1 -12 -15 -19 -15 -30 -2 -38 8 -5
9 -13 4 -21 -12 -20 -14 -38 -3 -45 5 -3 5 -13 -1 -25 -8 -13 -7 -19 0 -19 6
0 8 -5 4 -12 -10 -16 -11 -68 -1 -68 5 0 5 -5 1 -12 -9 -15 -10 -58 -1 -81 3
-9 2 -19 -2 -21 -5 -3 -7 -17 -6 -30 3 -24 -18 -42 -36 -30 -5 3 -9 0 -9 -7 0
-8 -4 -8 -15 1 -8 7 -15 10 -15 7 0 -3 -16 -1 -35 3 -19 4 -35 4 -35 0 0 -5
-9 -6 -20 -3 -11 3 -20 9 -20 13 0 5 -9 6 -19 3 -10 -3 -28 0 -40 6 -16 9 -21
9 -22 -1 0 -10 -2 -10 -6 0 -2 6 -9 10 -14 6 -5 -3 -9 0 -9 6 0 7 -7 10 -15 6
-8 -3 -15 -2 -15 3 0 5 -9 11 -20 14 -11 3 -20 1 -20 -4 0 -5 -15 0 -32 11
-18 11 -41 20 -50 20 -10 0 -18 5 -18 10 0 6 -7 10 -15 10 -8 0 -15 6 -15 13
0 9 -3 8 -9 -2 -6 -9 -11 -10 -15 -2 -4 6 -12 9 -17 6 -5 -4 -9 1 -9 9 0 8
-16 20 -35 27 -19 7 -35 17 -35 21 0 4 -7 8 -16 8 -8 0 -13 4 -10 9 3 5 -4 11
-17 15 -12 3 -34 17 -49 31 -15 14 -32 25 -38 25 -5 0 -10 6 -10 14 0 8 -8 17
-17 21 -10 3 -29 21 -43 40 -14 19 -31 35 -37 35 -7 0 -13 7 -13 16 0 8 -4 12
-10 9 -5 -3 -10 1 -10 10 0 9 -4 13 -10 10 -5 -3 -10 -2 -10 3 0 4 -8 17 -17
28 -10 11 -22 27 -28 36 -5 9 -25 37 -42 62 -18 26 -33 51 -33 57 0 5 -4 9
-10 9 -5 0 -10 9 -10 20 0 11 -5 20 -11 20 -6 0 -9 7 -5 15 3 8 1 15 -4 15 -6
0 -10 9 -10 21 0 11 -4 17 -10 14 -6 -3 -7 1 -4 9 4 9 1 16 -6 16 -6 0 -10 6
-7 13 2 6 -3 18 -12 25 -12 10 -13 12 -1 6 12 -7 13 -5 3 8 -7 8 -10 18 -6 21
3 4 2 7 -4 7 -5 0 -10 6 -11 13 -5 43 -16 84 -25 95 -5 7 -7 15 -4 19 4 3 2
12 -4 20 -9 10 -8 13 2 13 11 0 11 2 -1 10 -12 8 -12 10 -1 10 11 0 10 4 -2
23 -10 16 -12 28 -5 40 6 12 5 17 -4 17 -9 0 -9 3 0 12 9 9 8 16 -5 30 -9 10
-12 18 -6 18 7 0 8 15 3 40 -4 22 -4 40 0 40 4 0 6 11 5 25 -2 14 1 27 6 31 5
3 7 9 4 14 -3 4 0 37 5 72 6 34 11 69 12 76 1 6 4 12 7 12 4 0 6 12 5 28 -1
15 3 33 9 40 5 6 6 12 2 12 -4 0 -2 7 5 15 7 8 10 15 6 15 -3 0 3 17 14 37 11
21 20 43 20 50 0 7 5 13 11 13 5 0 7 5 4 10 -3 6 -1 10 6 10 7 0 10 3 6 6 -3
4 1 21 10 38 10 17 16 34 15 39 -1 4 2 7 7 7 6 0 22 22 38 50 15 27 32 50 36
50 5 0 5 5 2 10 -3 6 -1 10 5 10 6 0 15 11 22 25 6 13 15 22 19 19 5 -3 9 -1
9 4 0 13 35 51 72 78 17 13 28 24 24 24 -4 0 12 16 36 36 23 20 46 41 49 46 3
5 10 10 15 10 5 0 8 4 6 9 -1 5 2 9 7 9 6 0 30 14 54 30 25 17 49 30 55 30 5
0 13 7 16 16 3 8 10 13 15 10 5 -4 16 0 24 8 8 8 17 13 20 10 3 -3 17 2 31 11
14 10 26 14 26 10 0 -3 7 1 16 9 8 9 20 14 25 11 5 -4 9 -1 9 5 0 6 4 9 9 5 5
-3 13 0 16 6 4 5 14 8 22 5 8 -3 24 0 35 8 11 8 27 12 36 9 8 -4 13 -2 9 3 -3
6 9 9 29 9 19 -1 37 2 39 6 3 4 16 6 30 4 14 -1 25 1 25 4 0 4 18 7 41 6 22
-1 43 3 46 8 3 5 9 4 13 -2 4 -7 11 -11 16 -10z"/>
<path d="M1547 4627 c4 -6 0 -8 -10 -4 -11 4 -17 1 -17 -9 0 -8 -4 -12 -10 -9
-9 6 -14 -8 -11 -27 0 -5 -3 -8 -8 -8 -6 0 -6 -12 -1 -30 10 -34 10 -35 10
-51 0 -5 5 -7 12 -3 6 4 8 3 4 -4 -8 -13 14 -63 25 -56 5 3 9 -6 9 -20 0 -14
5 -26 10 -26 6 0 10 -7 10 -15 0 -8 5 -15 10 -15 6 0 10 -7 10 -15 0 -8 5 -15
10 -15 6 0 10 -6 10 -14 0 -7 9 -25 20 -38 10 -14 16 -28 13 -32 -3 -3 -1 -6
6 -6 7 0 9 -4 6 -10 -3 -5 -1 -10 4 -10 6 0 11 -7 11 -15 0 -8 5 -15 10 -15 6
0 10 -9 10 -20 0 -11 5 -20 10 -20 6 0 10 -8 10 -19 0 -19 44 -54 67 -54 7 0
13 -4 13 -9 0 -12 63 1 71 14 3 5 9 9 13 9 3 -1 6 2 7 7 0 4 7 11 15 15 17 10
20 97 2 97 -6 0 -8 3 -5 6 7 7 -42 97 -55 102 -5 2 -6 7 -3 12 3 4 -2 13 -10
20 -8 7 -15 18 -15 25 0 7 -7 18 -15 25 -8 7 -12 16 -10 21 3 4 -2 12 -11 17
-9 5 -16 11 -15 13 2 12 -12 49 -18 49 -4 0 -13 16 -21 35 -7 19 -17 32 -22
29 -4 -3 -8 6 -8 21 0 15 -7 28 -17 32 -10 4 -21 11 -24 16 -10 14 -111 18
-102 4z"/>
<path d="M730 3795 c-7 -8 -17 -12 -22 -9 -15 9 -48 -32 -48 -60 0 -13 -6 -27
-12 -29 -10 -4 -10 -6 -1 -6 7 -1 10 -8 7 -16 -4 -8 -2 -15 4 -15 5 0 9 -8 8
-17 0 -10 13 -25 34 -35 19 -10 53 -30 75 -43 22 -14 57 -33 78 -42 20 -10 37
-21 37 -25 0 -5 7 -8 15 -8 8 0 15 -3 15 -8 0 -4 15 -14 33 -21 17 -8 38 -21
45 -28 7 -7 20 -13 28 -13 8 0 14 -5 14 -11 0 -5 5 -7 10 -4 6 3 10 1 10 -5 0
-6 4 -9 9 -5 5 3 12 1 16 -4 3 -5 13 -10 23 -10 9 -1 24 -1 32 -2 33 -3 80 28
80 53 0 5 4 7 8 4 8 -5 0 100 -8 107 -3 2 -34 23 -70 45 -36 23 -70 45 -75 49
-6 4 -17 9 -25 11 -8 2 -17 8 -18 13 -2 5 -8 7 -13 3 -5 -3 -9 -1 -9 4 0 6
-10 12 -23 16 -12 3 -32 15 -45 26 -12 11 -22 18 -22 14 0 -4 -8 0 -18 9 -10
10 -22 14 -25 11 -4 -4 -9 1 -13 10 -3 9 -10 13 -15 10 -5 -3 -9 -1 -9 4 0 8
-38 23 -60 24 -3 0 -12 4 -21 9 -12 6 -21 4 -29 -6z"/>
<path d="M410 2651 c-13 -11 -28 -17 -32 -15 -4 3 -10 -7 -14 -21 -3 -14 -9
-25 -13 -25 -3 0 -6 -18 -6 -40 0 -22 4 -40 8 -40 5 0 6 -4 3 -8 -4 -7 42 -49
50 -45 2 1 17 -2 34 -7 19 -5 30 -5 30 1 0 6 8 5 20 -1 12 -6 20 -7 20 -1 0 6
11 6 30 1 17 -5 30 -5 30 0 0 5 13 5 30 0 19 -5 30 -5 30 1 0 6 8 5 20 -1 12
-6 20 -7 20 -1 0 6 11 6 30 1 17 -5 30 -5 30 0 0 5 13 5 30 0 19 -5 30 -5 30
1 0 6 8 5 20 -1 11 -6 20 -7 20 -2 0 5 20 6 45 2 25 -4 45 -4 45 0 0 4 9 10
21 13 11 3 23 15 26 26 3 12 9 21 14 21 13 0 11 44 -3 77 -14 32 -61 79 -66
65 -1 -5 -20 -6 -42 -2 -22 4 -40 4 -40 0 0 -4 -18 -4 -40 0 -22 4 -40 4 -40
0 0 -4 -18 -4 -40 0 -22 4 -40 4 -40 0 0 -4 -18 -4 -40 0 -22 4 -40 4 -40 0 0
-4 -18 -4 -40 0 -22 4 -40 4 -40 -1 0 -4 -12 -4 -27 0 -16 4 -34 6 -42 3 -8
-3 -11 0 -7 7 10 15 5 14 -24 -8z"/>
<path d="M1107 1719 c-9 -6 -22 -7 -27 -4 -6 3 -13 -1 -16 -9 -3 -9 -10 -13
-15 -10 -5 3 -9 0 -9 -6 0 -6 -5 -8 -10 -5 -6 3 -13 -1 -16 -9 -3 -9 -11 -16
-18 -16 -6 0 -29 -12 -50 -26 -21 -15 -36 -20 -32 -13 4 8 1 6 -7 -3 -8 -10
-19 -18 -26 -18 -6 0 -11 -4 -11 -8 0 -10 -50 -37 -62 -34 -5 1 -8 -3 -8 -8 0
-5 -3 -9 -7 -8 -15 5 -143 -86 -132 -93 8 -5 8 -8 0 -13 -6 -4 -11 -24 -11
-45 0 -40 34 -83 68 -86 9 0 23 -4 30 -9 7 -4 12 -2 12 4 0 7 7 10 15 6 8 -3
15 -1 15 4 0 6 9 10 20 10 11 0 20 5 20 11 0 5 5 7 10 4 6 -3 13 1 16 9 3 9
10 13 15 10 5 -3 9 -1 9 4 0 5 6 9 13 9 6 0 31 12 54 26 24 15 47 27 52 27 5
0 12 7 15 16 3 8 10 12 16 9 5 -3 10 -1 10 5 0 6 5 8 10 5 6 -3 10 -1 10 5 0
6 5 8 10 5 6 -3 13 1 16 9 3 9 10 14 14 11 5 -3 13 3 19 12 5 10 12 17 15 16
29 -12 100 60 93 93 -2 14 1 24 7 24 6 0 4 5 -4 10 -9 6 -10 10 -3 10 8 0 7 9
-5 29 -9 16 -20 27 -24 25 -5 -3 -8 0 -8 6 0 6 -4 9 -9 5 -5 -3 -13 -1 -16 5
-5 8 -11 8 -20 0 -8 -7 -14 -7 -17 -1 -2 6 -9 6 -21 0z"/>
<path d="M1747 1020 c-24 -21 -34 -37 -30 -47 4 -10 2 -14 -4 -10 -9 6 -50
-64 -42 -71 2 -2 -4 -8 -14 -13 -9 -6 -15 -14 -12 -19 3 -4 -2 -11 -11 -14 -8
-3 -13 -10 -10 -15 3 -5 -1 -14 -9 -21 -8 -7 -12 -16 -9 -21 3 -5 0 -9 -5 -9
-6 0 -11 -7 -11 -15 0 -8 -3 -15 -7 -15 -11 0 -33 -51 -27 -61 3 -5 1 -9 -4
-9 -11 0 -43 -46 -46 -66 -1 -7 -5 -17 -9 -20 -11 -12 -8 -64 4 -64 6 0 9 -6
6 -14 -3 -8 5 -24 19 -37 17 -16 24 -18 24 -8 0 12 2 11 10 -1 6 -10 10 -11
10 -3 0 9 7 10 28 2 15 -6 28 -10 29 -9 17 10 63 61 63 69 0 6 5 11 10 11 6 0
10 6 10 14 0 8 7 22 16 31 9 9 14 18 11 21 -3 3 4 17 16 31 12 13 22 29 22 34
0 5 7 14 15 19 8 5 11 12 8 16 -4 4 3 21 15 38 12 17 22 35 22 39 0 4 5 11 11
15 19 12 83 142 73 148 -5 3 -7 10 -4 15 4 5 1 9 -5 9 -6 0 -8 5 -5 10 3 6 1
10 -4 10 -6 0 -11 6 -11 13 0 7 -14 21 -31 31 -18 11 -29 13 -24 6 6 -9 3 -10
-14 -1 -16 9 -21 9 -21 -1 0 -10 -2 -10 -9 0 -6 11 -16 7 -44 -18z"/>
</g>
</svg>
